REM DIRINDEX 1\5,1\2\6,1\2\7,1\3\8,1\3\9,1\4\10,1\4\11,1\4\12
REM DIRNAME cjc026,folder01,folder02,folder03,folder04,folder05,folder06,folder07,folder08,folder09,folder10,folder11
TITLE ""
FILE "EJE_DB3000_5th_4B_45.mp3" MP3
  TRACK 01 AUDIO
    TITLE "0:"
    INDEX 01 00:00:00
  TRACK 02 AUDIO
    TITLE "10:cjc026_09927"
    INDEX 01 00:00:08
  TRACK 03 AUDIO
    TITLE "0:"
    INDEX 01 00:01:22
  TRACK 04 AUDIO
    TITLE "11:cjc026_09928"
    INDEX 01 00:01:57
  TRACK 05 AUDIO
    TITLE "0:"
    INDEX 01 00:02:71
  TRACK 06 AUDIO
    TITLE "12:cjc026_09929"
    INDEX 01 00:03:31
  TRACK 07 AUDIO
    TITLE "0:"
    INDEX 01 00:04:45
  TRACK 08 AUDIO
    TITLE "10:cjc026_09930"
    INDEX 01 00:05:08
  TRACK 09 AUDIO
    TITLE "0:"
    INDEX 01 00:06:25
  TRACK 10 AUDIO
    TITLE "11:cjc026_09931"
    INDEX 01 00:06:63
  TRACK 11 AUDIO
    TITLE "0:"
    INDEX 01 00:07:63
  TRACK 12 AUDIO
    TITLE "12:cjc026_09932"
    INDEX 01 00:08:26
  TRACK 13 AUDIO
    TITLE "0:"
    INDEX 01 00:09:43
  TRACK 14 AUDIO
    TITLE "10:cjc026_09933"
    INDEX 01 00:10:06
  TRACK 15 AUDIO
    TITLE "0:"
    INDEX 01 00:11:22
  TRACK 16 AUDIO
    TITLE "11:cjc026_09934"
    INDEX 01 00:11:60
  TRACK 17 AUDIO
    TITLE "0:"
    INDEX 01 00:13:05
  TRACK 18 AUDIO
    TITLE "12:cjc026_09935"
    INDEX 01 00:13:40
  TRACK 19 AUDIO
    TITLE "0:"
    INDEX 01 00:14:59
  TRACK 20 AUDIO
    TITLE "10:cjc026_09936"
    INDEX 01 00:15:22
  TRACK 21 AUDIO
    TITLE "0:"
    INDEX 01 00:16:58
  TRACK 22 AUDIO
    TITLE "11:cjc026_09937"
    INDEX 01 00:17:18
  TRACK 23 AUDIO
    TITLE "0:"
    INDEX 01 00:18:56
  TRACK 24 AUDIO
    TITLE "12:cjc026_09938"
    INDEX 01 00:19:19
  TRACK 25 AUDIO
    TITLE "0:"
    INDEX 01 00:20:57
  TRACK 26 AUDIO
    TITLE "10:cjc026_09939"
    INDEX 01 00:21:15
  TRACK 27 AUDIO
    TITLE "0:"
    INDEX 01 00:22:48
  TRACK 28 AUDIO
    TITLE "11:cjc026_09940"
    INDEX 01 00:23:11
  TRACK 29 AUDIO
    TITLE "0:"
    INDEX 01 00:24:57
  TRACK 30 AUDIO
    TITLE "12:cjc026_09941"
    INDEX 01 00:25:17
  TRACK 31 AUDIO
    TITLE "0:"
    INDEX 01 00:26:50
  TRACK 32 AUDIO
    TITLE "10:cjc026_09942"
    INDEX 01 00:27:13
  TRACK 33 AUDIO
    TITLE "0:"
    INDEX 01 00:28:54
  TRACK 34 AUDIO
    TITLE "11:cjc026_09943"
    INDEX 01 00:29:17
  TRACK 35 AUDIO
    TITLE "0:"
    INDEX 01 00:30:72
  TRACK 36 AUDIO
    TITLE "12:cjc026_09944"
    INDEX 01 00:31:32
  TRACK 37 AUDIO
    TITLE "0:"
    INDEX 01 00:32:73
  TRACK 38 AUDIO
    TITLE "10:cjc026_09945"
    INDEX 01 00:33:35
  TRACK 39 AUDIO
    TITLE "0:"
    INDEX 01 00:34:60
  TRACK 40 AUDIO
    TITLE "11:cjc026_09946"
    INDEX 01 00:35:21
  TRACK 41 AUDIO
    TITLE "0:"
    INDEX 01 00:36:67
  TRACK 42 AUDIO
    TITLE "12:cjc026_09947"
    INDEX 01 00:37:27
  TRACK 43 AUDIO
    TITLE "0:"
    INDEX 01 00:38:52
  TRACK 44 AUDIO
    TITLE "10:cjc026_09948"
    INDEX 01 00:39:12
  TRACK 45 AUDIO
    TITLE "0:"
    INDEX 01 00:40:34
  TRACK 46 AUDIO
    TITLE "11:cjc026_09949"
    INDEX 01 00:41:00
  TRACK 47 AUDIO
    TITLE "0:"
    INDEX 01 00:42:52
  TRACK 48 AUDIO
    TITLE "12:cjc026_09950"
    INDEX 01 00:43:12
  TRACK 49 AUDIO
    TITLE "0:"
    INDEX 01 00:44:34
  TRACK 50 AUDIO
    TITLE "10:cjc026_09951"
    INDEX 01 00:45:00
  TRACK 51 AUDIO
    TITLE "0:"
    INDEX 01 00:46:33
  TRACK 52 AUDIO
    TITLE "11:cjc026_09952"
    INDEX 01 00:46:73
  TRACK 53 AUDIO
    TITLE "0:"
    INDEX 01 00:48:39
  TRACK 54 AUDIO
    TITLE "12:cjc026_09953"
    INDEX 01 00:49:02
  TRACK 55 AUDIO
    TITLE "0:"
    INDEX 01 00:50:35
  TRACK 56 AUDIO
    TITLE "10:cjc026_09954"
    INDEX 01 00:51:00
  TRACK 57 AUDIO
    TITLE "0:"
    INDEX 01 00:52:20
  TRACK 58 AUDIO
    TITLE "11:cjc026_09955"
    INDEX 01 00:52:58
  TRACK 59 AUDIO
    TITLE "0:"
    INDEX 01 00:54:13
  TRACK 60 AUDIO
    TITLE "12:cjc026_09956"
    INDEX 01 00:54:51
  TRACK 61 AUDIO
    TITLE "0:"
    INDEX 01 00:55:68
  TRACK 62 AUDIO
    TITLE "10:cjc026_09957"
    INDEX 01 00:56:30
  TRACK 63 AUDIO
    TITLE "0:"
    INDEX 01 00:57:53
  TRACK 64 AUDIO
    TITLE "11:cjc026_09958"
    INDEX 01 00:58:15
  TRACK 65 AUDIO
    TITLE "0:"
    INDEX 01 00:59:70
  TRACK 66 AUDIO
    TITLE "12:cjc026_09959"
    INDEX 01 01:00:30
  TRACK 67 AUDIO
    TITLE "0:"
    INDEX 01 01:01:52
  TRACK 68 AUDIO
    TITLE "10:cjc026_09960"
    INDEX 01 01:02:15
  TRACK 69 AUDIO
    TITLE "0:"
    INDEX 01 01:03:40
  TRACK 70 AUDIO
    TITLE "11:cjc026_09961"
    INDEX 01 01:04:03
  TRACK 71 AUDIO
    TITLE "0:"
    INDEX 01 01:05:47
  TRACK 72 AUDIO
    TITLE "12:cjc026_09962"
    INDEX 01 01:06:09
  TRACK 73 AUDIO
    TITLE "0:"
    INDEX 01 01:07:34
  TRACK 74 AUDIO
    TITLE "10:cjc026_09963"
    INDEX 01 01:07:72
  TRACK 75 AUDIO
    TITLE "0:"
    INDEX 01 01:09:22
  TRACK 76 AUDIO
    TITLE "11:cjc026_09964"
    INDEX 01 01:09:60
  TRACK 77 AUDIO
    TITLE "0:"
    INDEX 01 01:11:12
  TRACK 78 AUDIO
    TITLE "12:cjc026_09965"
    INDEX 01 01:11:53
  TRACK 79 AUDIO
    TITLE "0:"
    INDEX 01 01:13:03
  TRACK 80 AUDIO
    TITLE "10:cjc026_09966"
    INDEX 01 01:13:38
  TRACK 81 AUDIO
    TITLE "0:"
    INDEX 01 01:15:07
  TRACK 82 AUDIO
    TITLE "11:cjc026_09967"
    INDEX 01 01:15:36
  TRACK 83 AUDIO
    TITLE "0:"
    INDEX 01 01:16:59
  TRACK 84 AUDIO
    TITLE "12:cjc026_09968"
    INDEX 01 01:17:16
  TRACK 85 AUDIO
    TITLE "0:"
    INDEX 01 01:18:60
